<svg width="53" height="20" viewBox="0 0 53 20" fill="none" xmlns="http://www.w3.org/2000/svg">
<path d="M26.4595 19.4981C25.5999 19.4994 24.7668 19.2728 24.1048 18.8576L2.02947 4.93285C1.27811 4.46013 0.805607 3.78085 0.715909 3.04444C0.62621 2.30803 0.926663 1.5748 1.55117 1.00607C2.17568 0.437335 3.07308 0.0796808 4.04597 0.0117846C5.01885 -0.0561117 5.98752 0.171311 6.73888 0.644024L26.4595 13.1206L46.1802 1.08962C46.5565 0.858284 46.9896 0.685529 47.4544 0.581283C47.9192 0.477038 48.4067 0.443357 48.8888 0.482177C49.3708 0.520997 49.838 0.63155 50.2635 0.807486C50.6889 0.983422 51.0643 1.22127 51.3679 1.50736C51.7048 1.79371 51.96 2.12965 52.1175 2.49413C52.2749 2.8586 52.3312 3.24376 52.2829 3.62548C52.2345 4.00719 52.0825 4.37723 51.8364 4.71242C51.5904 5.04761 51.2555 5.34072 50.8528 5.57338L28.7774 19.0247C28.0965 19.3742 27.2804 19.5409 26.4595 19.4981Z" fill="white"/>
</svg>
