<svg width="21" height="21" viewBox="0 0 21 21" fill="none" xmlns="http://www.w3.org/2000/svg">
<g clip-path="url(#clip0_388_24)">
<path d="M10.5 0.875004C7.97428 0.849339 5.54171 1.82754 3.73689 3.59461C1.93208 5.36169 0.902703 7.77306 0.875 10.2988C0.884732 12.2948 1.52683 14.2364 2.70905 15.8446C3.89128 17.4529 5.55282 18.6451 7.455 19.25C7.93625 19.3375 8.11125 19.0488 8.11125 18.795C8.11125 18.5413 8.11125 17.9813 8.11125 17.1938C5.43375 17.7625 4.865 15.9338 4.865 15.9338C4.68676 15.3597 4.30783 14.8689 3.7975 14.5513C2.9225 13.9738 3.8675 13.9825 3.8675 13.9825C4.16995 14.0229 4.45931 14.1313 4.7139 14.2995C4.96848 14.4677 5.18168 14.6914 5.3375 14.9538C5.60904 15.4246 6.05459 15.77 6.57826 15.9157C7.10193 16.0613 7.66184 15.9955 8.1375 15.7325C8.18642 15.2533 8.40341 14.807 8.75 14.4725C6.615 14.2363 4.375 13.4313 4.375 9.8175C4.35591 8.87485 4.70421 7.96173 5.34625 7.27125C5.05385 6.46194 5.08838 5.57053 5.4425 4.78625C5.4425 4.78625 6.25625 4.5325 8.0675 5.74875C9.64416 5.32861 11.3033 5.32861 12.88 5.74875C14.7175 4.5325 15.505 4.78625 15.505 4.78625C15.8591 5.57053 15.8937 6.46194 15.6013 7.27125C16.2582 7.94907 16.6254 8.85606 16.625 9.8C16.625 13.4225 14.3675 14.2188 12.25 14.455C12.4819 14.6801 12.661 14.9538 12.7744 15.2564C12.8879 15.559 12.9329 15.8829 12.9063 16.205V18.7863C12.9063 18.7863 13.0813 19.3375 13.5625 19.2413C15.4593 18.6326 17.1152 17.4401 18.2938 15.8341C19.4724 14.2281 20.1133 12.2908 20.125 10.2988C20.0973 7.77306 19.0679 5.36169 17.2631 3.59461C15.4583 1.82754 13.0257 0.849339 10.5 0.875004Z" fill="white"/>
</g>
<defs>
<clipPath id="clip0_388_24">
<rect width="21" height="21" fill="white"/>
</clipPath>
</defs>
</svg>
