<svg width="19" height="19" viewBox="0 0 19 19" fill="none" xmlns="http://www.w3.org/2000/svg">
<path d="M9.49995 13.2777C11.5863 13.2777 13.2777 11.5863 13.2777 9.49995C13.2777 7.41354 11.5863 5.72217 9.49995 5.72217C7.41354 5.72217 5.72217 7.41354 5.72217 9.49995C5.72217 11.5863 7.41354 13.2777 9.49995 13.2777Z" stroke="white" stroke-width="1.95833" stroke-linecap="round" stroke-linejoin="round"/>
<path d="M1 13.2778V5.72222C1 3.11421 3.11421 1 5.72222 1H13.2778C15.8858 1 18 3.11421 18 5.72222V13.2778C18 15.8858 15.8858 18 13.2778 18H5.72222C3.11421 18 1 15.8858 1 13.2778Z" stroke="white" stroke-width="1.95833"/>
<path d="M14.6943 4.3151L14.7041 4.3042" stroke="white" stroke-width="1.95833" stroke-linecap="round" stroke-linejoin="round"/>
</svg>
